<svg xmlns="http://www.w3.org/2000/svg" width="19" height="19"><path d="M18.826 3.143l-1.607-1.608a1.188 1.188 0 00-.84-.348h-5.691V.594A.594.594 0 0010.094 0H8.906a.594.594 0 00-.594.594v.594H2.078a.891.891 0 00-.891.891v2.968a.891.891 0 00.891.891h14.3a1.188 1.188 0 00.84-.348l1.607-1.607a.594.594 0 00.001-.84zM8.313 18.406a.594.594 0 00.593.594h1.188a.594.594 0 00.594-.594V14.25H8.313zm8.609-10.093h-6.234V7.125H8.313v1.188H2.621a1.188 1.188 0 00-.84.348L.174 10.268a.594.594 0 000 .84l1.607 1.607a1.188 1.188 0 00.84.348h14.3a.891.891 0 00.891-.891V9.2a.891.891 0 00-.89-.887z" fill="currentColor"/></svg>