<svg xmlns="http://www.w3.org/2000/svg" width="186.823" height="68" viewBox="0 0 186.823 68"><defs><style>.C1 .a{fill:#e0e0e0;}.C1 .b{fill:#0097a7;}.C1 .c{fill:#424242;}</style></defs><g transform="translate(54.7 -1)" class="C1"><path class="a" d="M119.571,141.068a11.182,11.182,0,0,0-13.727-10.9,11.195,11.195,0,1,0-22.073,3.252,11.193,11.193,0,1,0-3.836,22.037,11.284,11.284,0,0,1,1.191-1.906,9.2,9.2,0,1,1,3.46-17.821,11.27,11.27,0,0,0,5.4,5.308.146.146,0,0,0,.017.049h0a11.162,11.162,0,0,0-1.048,8.154c.339-.031.68-.048,1.026-.048q.562,0,1.111.055l-.059-.007a9.2,9.2,0,1,1,17.4.436A11.171,11.171,0,0,0,97.6,152.159l-.02-.017a.117.117,0,0,1-.007.02,11.37,11.37,0,0,1,1.35,1.491l.02-.013h0a9.2,9.2,0,1,1,.009,13.5l-.033-.017a11.33,11.33,0,0,1-1.359,1.5.077.077,0,0,0,.011.017l.028-.024a11.195,11.195,0,1,0,14.527-17A11.215,11.215,0,0,0,119.571,141.068Zm-17.028-5.439a11.178,11.178,0,0,0-11.374,3.744,9.2,9.2,0,1,1,11.374-3.744Zm7.884,14.4a11.184,11.184,0,0,0-5.971-13.727,11.117,11.117,0,0,0,1.333-4.055,9.1,9.1,0,0,1,2.592-.377,9.2,9.2,0,0,1,2.052,18.161Z" transform="translate(-56.27 -102.852)"/><circle class="a" cx="1" cy="1" r="1" transform="translate(26.208 43.985)"/><circle class="a" cx="1" cy="1" r="1" transform="translate(21.037 34.738)"/><circle class="a" cx="1" cy="1" r="1" transform="translate(25.522 37.217)"/><circle class="a" cx="1" cy="1" r="1" transform="translate(56.338 41.778)"/><circle class="a" cx="1" cy="1" r="1" transform="translate(52.238 31.97)"/><circle class="a" cx="1" cy="1" r="1" transform="translate(32.342 31.31)"/><circle class="a" cx="1" cy="1" r="1" transform="translate(33.342 24.417)"/><circle class="a" cx="1" cy="1" r="1" transform="translate(42.939 22.73)"/><circle class="a" cx="1" cy="1" r="1" transform="translate(38.66 28.568)"/><circle class="a" cx="1" cy="1" r="1" transform="translate(48.908 41.635)"/><circle class="a" cx="1" cy="1" r="1" transform="translate(39.121 36.865)"/><circle class="a" cx="1" cy="1" r="1" transform="translate(39.121 45.112)"/><circle class="a" cx="1" cy="1" r="1" transform="translate(44.138 51.704)"/><circle class="a" cx="1" cy="1" r="1" transform="translate(42.139 59.953)"/><circle class="a" cx="1" cy="1" r="1" transform="translate(52.238 56.703)"/><circle class="a" cx="1" cy="1" r="1" transform="translate(47.909 63.594)"/><circle class="a" cx="1" cy="1" r="1" transform="translate(35.481 51.056)"/><circle class="a" cx="1" cy="1" r="1" transform="translate(28.207 60.693)"/><circle class="a" cx="1" cy="1" r="1" transform="translate(38.121 59.694)"/><circle class="a" cx="1" cy="1" r="1" transform="translate(28.207 51.704)"/><path class="b" d="M145.695,363.61a11.195,11.195,0,1,1,11.195-11.195A11.195,11.195,0,0,1,145.695,363.61Zm0-20.391a9.2,9.2,0,1,0,9.2,9.2,9.2,9.2,0,0,0-9.2-9.2Z" transform="translate(-111.981 -294.878)"/><circle class="b" cx="1" cy="1" r="1" transform="translate(42.139 59.953)"/><circle class="b" cx="1" cy="1" r="1" transform="translate(34.482 63.594)"/><circle class="b" cx="1" cy="1" r="1" transform="translate(35.481 51.056)"/><circle class="b" cx="1" cy="1" r="1" transform="translate(28.207 60.693)"/><circle class="b" cx="1" cy="1" r="1" transform="translate(38.121 59.694)"/><circle class="b" cx="1" cy="1" r="1" transform="translate(28.207 51.704)"/><path class="c" d="M99.35,225.2a1,1,0,0,0-1,1v28.463a1,1,0,0,0,2,0V226.2A1,1,0,0,0,99.35,225.2Z" transform="translate(-80.649 -194.32)"/><path class="c" d="M108.676,209.91a1,1,0,0,0-1,1v32.026a5.139,5.139,0,0,1-5.131,5.134H63.63a5.139,5.139,0,0,1-5.131-5.134v-9.557a1,1,0,0,0-2,0v9.558a7.146,7.146,0,0,0,4.974,6.8,15.842,15.842,0,0,0,2,.335H102.7a15.842,15.842,0,0,0,2-.335,7.146,7.146,0,0,0,4.974-6.8V210.91A1,1,0,0,0,108.676,209.91Z" transform="translate(-44.376 -181.068)"/><path class="c" d="M91.884,66.585H64.163V63h-2v3.732A7.145,7.145,0,0,0,56.5,73.718v26.856a1,1,0,0,0,2,0V73.718a5.139,5.139,0,0,1,5.131-5.134H91.884a1,1,0,1,0,0-2Z" transform="translate(-44.376 -53.737)"/><path class="c" d="M363.926,66.732V63h-2v3.585H357.38a1,1,0,1,0,0,2h5.08a5.139,5.139,0,0,1,5.134,5.134v3.845a1,1,0,1,0,2,0V73.718A7.145,7.145,0,0,0,363.926,66.732Z" transform="translate(-304.29 -53.737)"/><path class="b" d="M129.947,9.263a1,1,0,0,0,1-1V2a1,1,0,0,0-1-1H86.5a1,1,0,0,0-1,1V8.263a1,1,0,0,0,1,1Zm-38.352-2h-4.1V3h4.1Zm7.788,0H93.594V3h5.789Zm7.788,0h-5.789V3h5.789Zm7.788,0h-5.789V3h5.789Zm7.79,0h-5.791V3h5.791Zm2,0V3h4.2V7.264Z" transform="translate(-69.511)"/><path class="c" d="M132.123,497.15a1,1,0,0,0-1-1H-53.7a1,1,0,0,0-1,1,1,1,0,0,0,1,1H131.124A1,1,0,0,0,132.123,497.15Z" transform="translate(0 -429.16)"/></g></svg>