<svg xmlns="http://www.w3.org/2000/svg" width="186.823" height="68" viewBox="0 0 186.823 68"><defs><style>.C3 .a{fill:#0097a7;}.C3 .b{fill:#424242;}</style></defs><g transform="translate(54.7 -1)" class="C3"><path class="a" d="M119.548,141.068a11.182,11.182,0,0,0-13.727-10.9,11.195,11.195,0,1,0-22.073,3.252,11.083,11.083,0,0,0-2.358-.255,11.195,11.195,0,0,0-1.451,22.3h0a11.195,11.195,0,0,0,17.633,13.165,11.195,11.195,0,1,0,14.527-17A11.215,11.215,0,0,0,119.548,141.068Zm-24.9-19.394a9.2,9.2,0,0,1,7.863,13.955,11.178,11.178,0,0,0-11.374,3.744,9.2,9.2,0,0,1,3.505-17.7Zm5.135,15.614a9.2,9.2,0,0,1,8.624,12.386,11.171,11.171,0,0,0-10.836,2.486,11.16,11.16,0,0,0-6.56-2.921,9.188,9.188,0,0,1,8.772-11.951Zm3.718-1.361-.04-.013Zm-.482-.159-.065-.019Zm-30.827,8.589a9.2,9.2,0,0,1,12.369-8.632,11.27,11.27,0,0,0,5.4,5.308.146.146,0,0,0,.017.049h0a11.155,11.155,0,0,0-1.046,8.156,11.2,11.2,0,0,0-7.806,4.307h0A9.205,9.205,0,0,1,72.195,144.359Zm17.795,25.226a9.2,9.2,0,1,1,9.2-9.2A9.2,9.2,0,0,1,89.989,169.585Zm24.364-9.2a9.188,9.188,0,0,1-15.436,6.745,11.168,11.168,0,0,0,0-13.494,9.2,9.2,0,0,1,15.436,6.748Zm-2.7-9.109.035.025Zm-1.387-.849c.04-.105.076-.213.113-.32-.036.107-.073.215-.113.32Zm.434.237.1.059Zm.508.308.009.007Zm-.8-.942a11.184,11.184,0,0,0-5.971-13.727h0a11.118,11.118,0,0,0,1.333-4.055,9.1,9.1,0,0,1,2.592-.377,9.2,9.2,0,0,1,2.052,18.161Zm-6.441-13.93h.007Z" transform="translate(-56.248 -102.852)"/><circle class="a" cx="1" cy="1" r="1" transform="translate(26.208 43.985)"/><circle class="a" cx="1" cy="1" r="1" transform="translate(21.037 34.738)"/><circle class="a" cx="1" cy="1" r="1" transform="translate(25.522 37.217)"/><circle class="a" cx="1" cy="1" r="1" transform="translate(56.338 41.778)"/><circle class="a" cx="1" cy="1" r="1" transform="translate(52.237 31.97)"/><circle class="a" cx="1" cy="1" r="1" transform="translate(32.342 31.31)"/><circle class="a" cx="1" cy="1" r="1" transform="translate(33.342 24.417)"/><circle class="a" cx="1" cy="1" r="1" transform="translate(42.939 22.73)"/><circle class="a" cx="1" cy="1" r="1" transform="translate(38.66 28.568)"/><circle class="a" cx="1" cy="1" r="1" transform="translate(48.908 41.635)"/><circle class="a" cx="1" cy="1" r="1" transform="translate(39.121 36.865)"/><circle class="a" cx="1" cy="1" r="1" transform="translate(39.121 45.112)"/><circle class="a" cx="1" cy="1" r="1" transform="translate(44.138 51.704)"/><circle class="a" cx="1" cy="1" r="1" transform="translate(42.139 59.953)"/><circle class="a" cx="1" cy="1" r="1" transform="translate(52.237 56.703)"/><circle class="a" cx="1" cy="1" r="1" transform="translate(47.909 63.594)"/><circle class="a" cx="1" cy="1" r="1" transform="translate(34.482 63.594)"/><circle class="a" cx="1" cy="1" r="1" transform="translate(35.481 51.056)"/><circle class="a" cx="1" cy="1" r="1" transform="translate(28.207 60.693)"/><circle class="a" cx="1" cy="1" r="1" transform="translate(38.121 59.694)"/><circle class="a" cx="1" cy="1" r="1" transform="translate(28.207 51.704)"/><path class="b" d="M108.676,209.91a1,1,0,0,0-1,1v32.026a5.139,5.139,0,0,1-5.131,5.134H63.63a5.139,5.139,0,0,1-5.131-5.134v-9.557a1,1,0,0,0-2,0v9.558a7.146,7.146,0,0,0,4.974,6.8,15.84,15.84,0,0,0,2,.335H102.7a15.841,15.841,0,0,0,2-.335,7.146,7.146,0,0,0,4.974-6.8V210.91A1,1,0,0,0,108.676,209.91Z" transform="translate(-44.376 -181.068)"/><path class="b" d="M91.884,66.585H64.163V63h-2v3.732A7.145,7.145,0,0,0,56.5,73.718v26.856a1,1,0,1,0,2,0V73.718a5.139,5.139,0,0,1,5.131-5.134H91.884a1,1,0,0,0,0-2Z" transform="translate(-44.376 -53.737)"/><path class="b" d="M363.926,66.732V63h-2v3.585H357.38a1,1,0,0,0,0,2h5.08a5.139,5.139,0,0,1,5.134,5.134v3.845a1,1,0,1,0,2,0V73.718A7.145,7.145,0,0,0,363.926,66.732Z" transform="translate(-304.29 -53.737)"/><path class="a" d="M129.947,9.263a1,1,0,0,0,1-1V2a1,1,0,0,0-1-1H86.5a1,1,0,0,0-1,1V8.263a1,1,0,0,0,1,1Zm-38.352-2h-4.1V3h4.1Zm7.788,0H93.594V3h5.789Zm7.788,0h-5.789V3h5.789Zm7.788,0h-5.789V3h5.789Zm7.79,0h-5.791V3h5.791Zm2,0V3h4.2V7.264Z" transform="translate(-69.511 0)"/><path class="b" d="M132.123,497.15a1,1,0,0,0-1-1H-53.7a1,1,0,0,0-1,1,1,1,0,0,0,1,1H131.124A1,1,0,0,0,132.123,497.15Z" transform="translate(0 -429.16)"/><path class="b" d="M99.35,225.2a1,1,0,0,0-1,1v28.463a1,1,0,0,0,2,0V226.2a1,1,0,0,0-1-1Z" transform="translate(-80.649 -194.32)"/></g></svg>