<svg xmlns="http://www.w3.org/2000/svg" width="186.823" height="68" viewBox="0 0 186.823 68"><defs><style>.C2 .a{fill:#0097a7;}.C2 .b{fill:#e0e0e0;}.C2 .c{fill:#424242;}</style></defs><g transform="translate(54.7 -1)" class="C2"><path class="a" d="M166.171,252a11.195,11.195,0,1,0-21.324-1.187,11.195,11.195,0,1,0,8.632,19.381A11.195,11.195,0,1,0,166.171,252Zm-10.478-13.141a9.2,9.2,0,0,1,8.624,12.386,11.171,11.171,0,0,0-10.836,2.486,11.16,11.16,0,0,0-6.56-2.921,9.188,9.188,0,0,1,8.772-11.951Zm-9.8,32.3a9.2,9.2,0,1,1,9.2-9.2A9.2,9.2,0,0,1,145.9,271.152Zm15.166,0a9.153,9.153,0,0,1-6.239-2.451,11.168,11.168,0,0,0,0-13.494,9.2,9.2,0,1,1,6.239,15.945Z" transform="translate(-112.154 -204.419)"/><circle class="a" cx="1" cy="1" r="1" transform="translate(48.908 41.635)"/><circle class="a" cx="1" cy="1" r="1" transform="translate(39.121 36.865)"/><circle class="a" cx="1" cy="1" r="1" transform="translate(39.121 45.112)"/><circle class="a" cx="1" cy="1" r="1" transform="translate(44.138 51.704)"/><circle class="a" cx="1" cy="1" r="1" transform="translate(52.237 56.703)"/><circle class="a" cx="1" cy="1" r="1" transform="translate(47.909 63.594)"/><circle class="a" cx="1" cy="1" r="1" transform="translate(34.482 63.594)"/><circle class="a" cx="1" cy="1" r="1" transform="translate(35.481 51.056)"/><circle class="a" cx="1" cy="1" r="1" transform="translate(28.207 60.693)"/><circle class="a" cx="1" cy="1" r="1" transform="translate(38.121 59.694)"/><circle class="a" cx="1" cy="1" r="1" transform="translate(28.207 51.704)"/><circle class="b" cx="1" cy="1" r="1" transform="translate(26.208 43.985)"/><circle class="b" cx="1" cy="1" r="1" transform="translate(21.037 34.738)"/><circle class="b" cx="1" cy="1" r="1" transform="translate(25.522 37.217)"/><circle class="b" cx="1" cy="1" r="1" transform="translate(56.338 41.778)"/><circle class="b" cx="1" cy="1" r="1" transform="translate(52.237 31.97)"/><circle class="b" cx="1" cy="1" r="1" transform="translate(32.342 31.31)"/><circle class="b" cx="1" cy="1" r="1" transform="translate(33.342 24.417)"/><circle class="b" cx="1" cy="1" r="1" transform="translate(42.939 22.73)"/><circle class="b" cx="1" cy="1" r="1" transform="translate(38.66 28.568)"/><path class="b" d="M355.25,265.453l-.08-.093Z" transform="translate(-303.242 -229.128)"/><path class="b" d="M353.114,263.118l-.064-.068Z" transform="translate(-301.404 -227.126)"/><path class="b" d="M323.91,493.66c.085.011.169.023.256.031C324.079,493.683,324,493.671,323.91,493.66Z" transform="translate(-276.148 -427.002)"/><path class="b" d="M346.885,257.2c-.015-.013-.029-.027-.045-.039A.221.221,0,0,1,346.885,257.2Z" transform="translate(-296.022 -222.021)"/><path class="b" d="M360.487,272.021c-.035-.051-.071-.1-.107-.151C360.416,271.922,360.452,271.971,360.487,272.021Z" transform="translate(-307.757 -234.77)"/><path class="b" d="M292.689,236.912c-.168-.008-.339-.013-.509-.013C292.356,236.9,292.526,236.9,292.689,236.912Z" transform="translate(-248.647 -204.46)"/><path class="b" d="M359.11,270.15Z" transform="translate(-306.657 -233.28)"/><path class="b" d="M310.32,490.54c.12.041.24.08.362.116C310.56,490.62,310.44,490.581,310.32,490.54Z" transform="translate(-264.369 -424.297)"/><path class="b" d="M320.39,493.13c.1.017.192.035.288.049C320.582,493.165,320.486,493.147,320.39,493.13Z" transform="translate(-273.097 -426.542)"/><path class="b" d="M317,492.44c.1.024.207.048.312.068C317.205,492.488,317.1,492.464,317,492.44Z" transform="translate(-270.159 -425.944)"/><path class="b" d="M313.6,491.56c.113.033.225.064.34.092C313.825,491.619,313.713,491.593,313.6,491.56Z" transform="translate(-267.212 -425.181)"/><path class="b" d="M304.1,488.08c.127.057.256.112.385.164C304.353,488.192,304.227,488.137,304.1,488.08Z" transform="translate(-258.978 -422.165)"/><path class="b" d="M307.25,489.41q.18.072.364.133A3.143,3.143,0,0,1,307.25,489.41Z" transform="translate(-261.708 -423.318)"/><path class="b" d="M327.44,494c.076,0,.151.013.228.016C327.591,494.015,327.515,494.007,327.44,494Z" transform="translate(-279.207 -427.296)"/><path class="b" d="M239.421,253.77c-.123.093-.243.188-.361.285C239.185,253.958,239.3,253.863,239.421,253.77Z" transform="translate(-202.606 -219.083)"/><path class="b" d="M236.413,256.19c-.12.1-.237.2-.353.305C236.176,256.391,236.293,256.289,236.413,256.19Z" transform="translate(-200.006 -221.18)"/><path class="b" d="M233.08,259.255c.108-.107.217-.212.331-.315C233.3,259.043,233.188,259.148,233.08,259.255Z" transform="translate(-197.423 -223.564)"/><path class="b" d="M288.753,236.89c-.177,0-.355,0-.533.015C288.4,236.9,288.576,236.89,288.753,236.89Z" transform="translate(-245.214 -204.452)"/><path class="b" d="M230.507,261.81c-.108.109-.213.22-.317.333C230.3,262.03,230.4,261.919,230.507,261.81Z" transform="translate(-194.918 -226.051)"/><path class="b" d="M242.07,251.765c.133-.095.255-.185.385-.275C242.327,251.579,242.194,251.67,242.07,251.765Z" transform="translate(-205.215 -217.106)"/><path class="b" d="M245.888,249.25c-.133.081-.26.164-.388.249C245.628,249.414,245.757,249.331,245.888,249.25Z" transform="translate(-208.188 -215.165)"/><path class="b" d="M227.825,264.73c-.1.116-.207.233-.305.353C227.619,264.963,227.717,264.846,227.825,264.73Z" transform="translate(-192.604 -228.582)"/><path class="b" d="M297.372,237.066q-.235-.023-.472-.036Q297.137,237.045,297.372,237.066Z" transform="translate(-252.738 -204.574)"/><path class="b" d="M301.831,237.458c-.123-.019-.247-.033-.371-.048C301.584,237.425,301.708,237.441,301.831,237.458Z" transform="translate(-256.69 -204.903)"/><path class="b" d="M305.871,238.018c-.133-.024-.255-.047-.381-.068C305.617,237.97,305.745,237.994,305.871,238.018Z" transform="translate(-260.183 -205.371)"/><path class="b" d="M310.224,238.859c-.133-.032-.255-.061-.384-.089C309.969,238.8,310.1,238.827,310.224,238.859Z" transform="translate(-263.953 -206.082)"/><path class="b" d="M371.477,293.086c-.035-.105-.069-.211-.107-.316C371.407,292.875,371.443,292.981,371.477,293.086Z" transform="translate(-317.283 -252.885)"/><path class="b" d="M375.91,326.224q.012-.152.02-.3Q375.922,326.072,375.91,326.224Z" transform="translate(-321.218 -281.617)"/><path class="b" d="M376.152,320.9c0,.165,0,.328-.012.49C376.148,321.228,376.152,321.065,376.152,320.9Z" transform="translate(-321.417 -277.266)"/><path class="b" d="M375.52,330.111c.011-.083.02-.167.028-.251C375.54,329.944,375.531,330.028,375.52,330.111Z" transform="translate(-320.88 -285.032)"/><path class="b" d="M375,333.806c.012-.072.024-.144.035-.216C375.023,333.662,375.011,333.734,375,333.806Z" transform="translate(-320.429 -288.265)"/><path class="b" d="M374.33,337.387c.013-.063.027-.124.039-.187C374.357,337.263,374.343,337.324,374.33,337.387Z" transform="translate(-319.848 -291.394)"/><path class="b" d="M376.143,317.554c0-.172,0-.344-.013-.514C376.138,317.211,376.143,317.383,376.143,317.554Z" transform="translate(-321.408 -273.92)"/><path class="b" d="M375.343,308.776c-.017-.167-.039-.332-.063-.5C375.3,308.443,375.325,308.608,375.343,308.776Z" transform="translate(-320.672 -266.328)"/><path class="b" d="M375.879,313.4c-.008-.133-.017-.259-.029-.388C375.862,313.142,375.87,313.275,375.879,313.4Z" transform="translate(-321.166 -270.427)"/><path class="b" d="M373.833,301.021c-.025-.121-.053-.241-.083-.361C373.783,300.78,373.807,300.9,373.833,301.021Z" transform="translate(-319.345 -259.723)"/><path class="b" d="M249.4,247.15q-.2.112-.4.232Q249.2,247.262,249.4,247.15Z" transform="translate(-211.221 -213.345)"/><path class="b" d="M372.643,296.716c-.04-.153-.084-.305-.133-.456C372.559,296.411,372.6,296.563,372.643,296.716Z" transform="translate(-318.271 -255.91)"/><path class="b" d="M374.692,304.97q-.032-.2-.072-.4Q374.66,304.768,374.692,304.97Z" transform="translate(-320.1 -263.112)"/><path class="b" d="M373.55,340.873l.04-.153Z" transform="translate(-319.172 -294.444)"/><path class="b" d="M394.574,368.688l-.044-.048Z" transform="translate(-337.356 -318.643)"/><path class="b" d="M285.7,371.071h0c.205-.189.418-.371.64-.541C286.118,370.7,285.905,370.882,285.7,371.071Z" transform="translate(-243.03 -320.282)"/><path class="b" d="M291.189,366.9q-.356.225-.689.482Q290.833,367.127,291.189,366.9Z" transform="translate(-247.19 -317.135)"/><path class="b" d="M346.6,342.49a11.029,11.029,0,0,0-1.589-.36A11.029,11.029,0,0,1,346.6,342.49Z" transform="translate(-294.436 -295.666)"/><path class="b" d="M275.47,363.35l.02.017h0Z" transform="translate(-234.164 -314.058)"/><path class="b" d="M397.726,372.349l-.056-.069Z" transform="translate(-340.078 -321.798)"/><path class="b" d="M285.77,475.89h0a9.245,9.245,0,0,0,2.058,1.438A9.245,9.245,0,0,1,285.77,475.89Z" transform="translate(-243.091 -411.6)"/><path class="b" d="M301.22,486.69c.125.064.252.125.38.183C301.472,486.815,301.345,486.754,301.22,486.69Z" transform="translate(-256.482 -420.961)"/><path class="b" d="M386.241,360.723l-.051-.043Z" transform="translate(-330.128 -311.744)"/><path class="b" d="M388.082,362.3l-.052-.045Z" transform="translate(-331.722 -313.105)"/><path class="b" d="M396.14,370.449l-.06-.069Z" transform="translate(-338.699 -320.152)"/><path class="b" d="M389.9,363.913l-.015-.013Z" transform="translate(-333.334 -314.535)"/><path class="b" d="M372.69,344.3c.011-.036.023-.072.033-.108C372.713,344.222,372.7,344.258,372.69,344.3Z" transform="translate(-318.427 -297.452)"/><path class="b" d="M415.783,414.087c-.009-.089-.021-.177-.033-.267C415.761,413.909,415.773,414,415.783,414.087Z" transform="translate(-355.748 -357.802)"/><path class="b" d="M409.6,391.863c-.023-.053-.045-.108-.069-.163C409.554,391.755,409.577,391.809,409.6,391.863Z" transform="translate(-350.357 -338.63)"/><path class="b" d="M408.532,389.485c-.023-.052-.048-.1-.072-.155C408.483,389.382,408.508,389.433,408.532,389.485Z" transform="translate(-349.43 -336.576)"/><path class="b" d="M413.447,402.719c-.019-.069-.037-.14-.057-.209C413.41,402.575,413.429,402.65,413.447,402.719Z" transform="translate(-353.703 -347.999)"/><path class="b" d="M412.6,399.868c-.024-.083-.051-.165-.077-.248C412.547,399.7,412.573,399.785,412.6,399.868Z" transform="translate(-352.948 -345.495)"/><path class="b" d="M407.367,387.141l-.077-.151Z" transform="translate(-348.415 -334.548)"/><path class="b" d="M411.571,396.819c-.029-.087-.059-.173-.091-.259C411.512,396.645,411.541,396.732,411.571,396.819Z" transform="translate(-352.047 -342.842)"/><path class="b" d="M410.609,394.3c-.023-.059-.045-.119-.069-.177C410.564,394.179,410.587,394.237,410.609,394.3Z" transform="translate(-351.232 -340.728)"/><path class="b" d="M295.833,500.668a11.116,11.116,0,0,1-1.423-.608A11.116,11.116,0,0,0,295.833,500.668Z" transform="translate(-250.579 -432.549)"/><path class="b" d="M321.486,508.444a10.7,10.7,0,0,1-1.066-.1A10.209,10.209,0,0,0,321.486,508.444Z" transform="translate(-273.123 -439.725)"/><path class="b" d="M405.628,383.9l-.068-.124Z" transform="translate(-346.916 -331.766)"/><path class="b" d="M401.705,377.665c-.015-.021-.031-.043-.045-.065C401.676,377.623,401.692,377.644,401.705,377.665Z" transform="translate(-343.536 -326.409)"/><path class="b" d="M402.988,379.574l-.068-.1Z" transform="translate(-344.628 -328.03)"/><path class="b" d="M404.329,381.7c-.023-.04-.045-.079-.069-.117C404.284,381.619,404.307,381.657,404.329,381.7Z" transform="translate(-345.789 -329.859)"/><path class="b" d="M416.512,422.783v-.373C416.51,422.534,416.512,422.658,416.512,422.783Z" transform="translate(-356.408 -365.247)"/><path class="b" d="M366.679,282.073c-.039-.079-.079-.156-.119-.233C366.6,281.917,366.64,281.995,366.679,282.073Z" transform="translate(-313.114 -243.412)"/><path class="b" d="M364.883,278.786c-.044-.079-.091-.157-.133-.236C364.793,278.629,364.839,278.707,364.883,278.786Z" transform="translate(-311.545 -240.56)"/><path class="b" d="M362.439,274.874c-.039-.061-.077-.124-.119-.184C362.361,274.75,362.4,274.813,362.439,274.874Z" transform="translate(-309.439 -237.214)"/><path class="b" d="M368.332,285.407c-.055-.127-.112-.253-.172-.377C368.22,285.159,368.272,285.281,368.332,285.407Z" transform="translate(-314.501 -246.176)"/><path class="b" d="M337.46,250.17l.015.009Z" transform="translate(-287.892 -215.962)"/><path class="b" d="M370,289.08c.043.1.085.209.125.316C370.079,289.289,370.036,289.184,370,289.08Z" transform="translate(-316.095 -249.687)"/><path class="b" d="M414.141,405.375c-.016-.072-.033-.144-.051-.215C414.107,405.231,414.125,405.3,414.141,405.375Z" transform="translate(-354.309 -350.296)"/><path class="b" d="M108.366,129.872a11.143,11.143,0,0,0-2.532.293,11.195,11.195,0,1,0-22.073,3.252,11.083,11.083,0,0,0-2.358-.255,11.195,11.195,0,0,0-1.478,22.291,11.285,11.285,0,0,1,1.191-1.906,9.2,9.2,0,1,1,3.461-17.821,11.27,11.27,0,0,0,5.4,5.308.146.146,0,0,0,.017.049h0a11.224,11.224,0,0,1,1.163-1.713,9.2,9.2,0,1,1,11.374-3.744,11.042,11.042,0,0,1,1.914.674h0a11.118,11.118,0,0,0,1.333-4.055,9.1,9.1,0,0,1,2.592-.377,9.2,9.2,0,0,1,2.052,18.161q-.066.2-.14.4a11.16,11.16,0,0,1,1.838,1.187,11.195,11.195,0,0,0-3.75-21.745Z" transform="translate(-56.261 -102.852)"/><path class="b" d="M414.749,408.053c-.015-.085-.032-.169-.049-.253C414.717,407.884,414.74,407.968,414.749,408.053Z" transform="translate(-354.838 -352.584)"/><path class="b" d="M415.277,410.793c-.017-.117-.037-.236-.057-.353C415.24,410.557,415.26,410.676,415.277,410.793Z" transform="translate(-355.289 -354.873)"/><path class="b" d="M416.111,417.041a2.42,2.42,0,0,0-.021-.241C416.1,416.88,416.106,416.96,416.111,417.041Z" transform="translate(-356.043 -360.385)"/><path class="b" d="M416.343,419.875c0-.085-.008-.171-.013-.255C416.335,419.7,416.339,419.789,416.343,419.875Z" transform="translate(-356.251 -362.829)"/><path class="b" d="M210.2,339Z" transform="translate(-177.592 -292.954)"/><path class="b" d="M226.4,341.56l.059.007h0Z" transform="translate(-191.633 -295.172)"/><path class="b" d="M224.49,334.06q.065.34.157.666Q224.558,334.4,224.49,334.06Z" transform="translate(-189.978 -288.672)"/><path class="b" d="M208.753,308.72c-.02.133-.037.277-.053.416C208.716,309,208.74,308.857,208.753,308.72Z" transform="translate(-176.292 -266.709)"/><path class="b" d="M284.487,237c-.167.008-.332.021-.5.037C284.155,237.024,284.32,237.011,284.487,237Z" transform="translate(-241.548 -204.548)"/><path class="b" d="M208.223,317.07c-.008.169-.013.34-.013.51C208.21,317.41,208.215,317.239,208.223,317.07Z" transform="translate(-175.868 -273.946)"/><path class="b" d="M208.387,312.51c-.016.163-.028.327-.037.49C208.359,312.842,208.371,312.673,208.387,312.51Z" transform="translate(-175.989 -269.994)"/><path class="b" d="M280.175,237.37c-.163.017-.325.037-.485.061C279.85,237.407,280.012,237.387,280.175,237.37Z" transform="translate(-237.821 -204.868)"/><path class="b" d="M260.122,242.13c-.149.056-.3.113-.442.175C259.831,242.246,259.977,242.186,260.122,242.13Z" transform="translate(-220.478 -208.994)"/><path class="b" d="M256.344,243.65c-.149.064-.3.133-.444.2C256.047,243.781,256.195,243.714,256.344,243.65Z" transform="translate(-217.202 -210.311)"/><path class="b" d="M264.088,240.76q-.225.072-.448.152Q263.864,240.832,264.088,240.76Z" transform="translate(-223.91 -207.806)"/><path class="b" d="M275.89,237.93c-.165.025-.329.055-.49.088C275.561,237.985,275.725,237.955,275.89,237.93Z" transform="translate(-234.103 -205.354)"/><path class="b" d="M268.09,239.57c-.159.041-.315.087-.47.133C267.776,239.657,267.937,239.611,268.09,239.57Z" transform="translate(-227.36 -206.775)"/><path class="b" d="M271.968,238.66c-.16.033-.32.069-.478.111C271.649,238.729,271.809,238.693,271.968,238.66Z" transform="translate(-230.714 -205.986)"/><path class="b" d="M306.092,504.915q-.51-.124-1-.295Q305.582,504.791,306.092,504.915Z" transform="translate(-259.836 -436.501)"/><path class="b" d="M208.87,331.36Z" transform="translate(-176.44 -286.332)"/><path class="b" d="M252.967,245.2c-.148.072-.293.147-.437.224C252.674,245.347,252.819,245.272,252.967,245.2Z" transform="translate(-214.281 -211.655)"/><path class="b" d="M210.748,341.326l-.008-.036Z" transform="translate(-178.06 -294.938)"/><path class="b" d="M275.4,486.974l.028-.024Z" transform="translate(-234.103 -421.186)"/><path class="b" d="M217.161,282c-.035.065-.068.133-.1.2C217.093,282.124,217.127,282.06,217.161,282Z" transform="translate(-183.538 -243.55)"/><path class="b" d="M282.287,492.454c-.288-.181-.568-.377-.837-.584C281.719,492.077,282,492.272,282.287,492.454Z" transform="translate(-239.347 -425.45)"/><path class="b" d="M212.324,292.92c-.036.1-.071.2-.1.307C212.256,293.124,212.291,293.021,212.324,292.92Z" transform="translate(-179.343 -253.015)"/><path class="b" d="M211.047,296.59c-.041.133-.081.273-.117.41C210.966,296.863,211.006,296.726,211.047,296.59Z" transform="translate(-178.225 -256.196)"/><path class="b" d="M210.161,300.67c-.029.116-.056.235-.081.353C210.105,300.9,210.132,300.786,210.161,300.67Z" transform="translate(-177.488 -259.732)"/><path class="b" d="M209.321,304.4c-.031.149-.057.3-.081.453C209.264,304.7,209.291,304.549,209.321,304.4Z" transform="translate(-176.76 -262.965)"/><path class="b" d="M215.261,285.24c-.048.1-.1.207-.141.311C215.165,285.447,215.213,285.341,215.261,285.24Z" transform="translate(-181.857 -246.358)"/><path class="b" d="M213.82,289.12c-.035.084-.068.169-.1.255C213.757,289.289,213.785,289.2,213.82,289.12Z" transform="translate(-180.643 -249.721)"/><path class="c" d="M99.35,225.2a1,1,0,0,0-1,1v28.463a1,1,0,0,0,2,0V226.2a1,1,0,0,0-1-1Z" transform="translate(-80.649 -194.32)"/><path class="c" d="M108.676,209.91a1,1,0,0,0-1,1v32.026a5.139,5.139,0,0,1-5.131,5.134H63.63a5.139,5.139,0,0,1-5.131-5.134v-9.557a1,1,0,0,0-2,0v9.558a7.146,7.146,0,0,0,4.974,6.8,15.84,15.84,0,0,0,2,.335H102.7a15.841,15.841,0,0,0,2-.335,7.146,7.146,0,0,0,4.974-6.8V210.91A1,1,0,0,0,108.676,209.91Z" transform="translate(-44.376 -181.068)"/><path class="c" d="M91.884,66.585H64.163V63h-2v3.732A7.145,7.145,0,0,0,56.5,73.718v26.856a1,1,0,1,0,2,0V73.718a5.139,5.139,0,0,1,5.131-5.134H91.884a1,1,0,0,0,0-2Z" transform="translate(-44.376 -53.737)"/><path class="c" d="M363.926,66.732V63h-2v3.585H357.38a1,1,0,0,0,0,2h5.08a5.139,5.139,0,0,1,5.134,5.134v3.845a1,1,0,1,0,2,0V73.718A7.145,7.145,0,0,0,363.926,66.732Z" transform="translate(-304.29 -53.737)"/><path class="a" d="M129.947,9.263a1,1,0,0,0,1-1V2a1,1,0,0,0-1-1H86.5a1,1,0,0,0-1,1V8.263a1,1,0,0,0,1,1Zm-38.352-2h-4.1V3h4.1Zm7.788,0H93.594V3h5.789Zm7.788,0h-5.789V3h5.789Zm7.788,0h-5.789V3h5.789Zm7.79,0h-5.791V3h5.791Zm2,0V3h4.2V7.264Z" transform="translate(-69.511 0)"/><path class="c" d="M132.123,497.15a1,1,0,0,0-1-1H-53.7a1,1,0,0,0-1,1,1,1,0,0,0,1,1H131.124A1,1,0,0,0,132.123,497.15Z" transform="translate(0 -429.16)"/></g></svg>