<svg width="15" height="16" viewBox="0 0 15 16" fill="currentColor" xmlns="http://www.w3.org/2000/svg">
<path d="M7.91615 3.75C9.39948 3.75 9.94948 4.45833 9.99948 5.5H11.8411C11.7828 4.06667 10.9078 2.75 9.16615 2.325V0.5H6.66615V2.3C6.22448 2.4 5.80781 2.55 5.43281 2.75L6.65781 3.975C6.99948 3.83333 7.41615 3.75 7.91615 3.75ZM1.94115 1.38333L0.882812 2.44167L3.74948 5.30833C3.74948 7.04167 5.04948 7.98333 7.00781 8.56667L9.93281 11.4917C9.64948 11.8917 9.05781 12.25 7.91615 12.25C6.19948 12.25 5.52448 11.4833 5.43281 10.5H3.59948C3.69948 12.325 5.06615 13.35 6.66615 13.6917V15.5H9.16615V13.7083C9.96615 13.5583 10.6828 13.25 11.2078 12.775L13.0578 14.625L14.1161 13.5667L1.94115 1.38333Z" />
</svg>
