<svg xmlns="http://www.w3.org/2000/svg" viewBox="0 0 18 18"><g fill="none"><path d="M9 12.448L13.326 15l-1.148-4.81L16 6.954l-5.033-.417L9 2 7.033 6.536 2 6.954l3.822 3.236L4.674 15z"/><path d="M11.047 11.914l-.328-1.376-.214-.897.704-.596 1.058-.896-1.424-.118-.895-.074-.357-.824L9 5.771l-.59 1.362-.358.824-.895.074-1.424.118 1.058.896.704.596-.214.897-.328 1.376 1.285-.758.762-.45.762.45 1.285.758M13.326 15L9 12.448 4.674 15l1.148-4.81L2 6.954l5.033-.418L9 2l1.967 4.536L16 6.954l-3.822 3.236L13.326 15z" fill="currentColor"/></g><path d="M0 0h18v18H0z" fill="none"/></svg>