<svg xmlns="http://www.w3.org/2000/svg" width="19" height="17.013"><path d="M18.99 5.153l-.006-.045a.561.561 0 00-.056-.16l-2.8-4.507s-.357-.442-.442-.442H3.755l-3.588 4.8-.042.044-.006.021a.786.786 0 00-.074.155l-.015.043a.7.7 0 00.006.42l.017.048a.745.745 0 00.083.156L8.81 16.67l.018.025a.751.751 0 00.165.155l.05.031a.893.893 0 00.176.083l.049.016a.852.852 0 00.471 0l.059-.021a.86.86 0 00.171-.084l.039-.024a.688.688 0 00.15-.139l8.686-11a.772.772 0 00.146-.349l.007-.057v-.045l-.011-.106zm-4.658-.293l1.236-2.24 1.236 2.237zm-.741 1.326h2.933l-4.889 6.194zm-.726-2l-1.787-2.418h3.124zm-5.72 2h4.71l-2.356 7.458zm.467-1.326L9.5 2.3l1.887 2.561H7.612zm-1.334-.871l-.813-2.221h2.456zm1.087 8.391L2.478 6.186h2.931zM4.049 2.639l.819 2.222H2.412z" fill="currentColor"/></svg>