<svg width="18" height="18" viewBox="0 0 18 18" fill="currentColor" xmlns="http://www.w3.org/2000/svg">
<path d="M11.1577 5.6665L8.99935 7.82484L6.84102 5.6665L5.66602 6.8415L7.82435 8.99984L5.66602 11.1582L6.84102 12.3332L8.99935 10.1748L11.1577 12.3332L12.3327 11.1582L10.1743 8.99984L12.3327 6.8415L11.1577 5.6665ZM8.99935 0.666504C4.39102 0.666504 0.666016 4.3915 0.666016 8.99984C0.666016 13.6082 4.39102 17.3332 8.99935 17.3332C13.6077 17.3332 17.3327 13.6082 17.3327 8.99984C17.3327 4.3915 13.6077 0.666504 8.99935 0.666504ZM8.99935 15.6665C5.32435 15.6665 2.33268 12.6748 2.33268 8.99984C2.33268 5.32484 5.32435 2.33317 8.99935 2.33317C12.6743 2.33317 15.666 5.32484 15.666 8.99984C15.666 12.6748 12.6743 15.6665 8.99935 15.6665Z" />
</svg>
