<svg width="24" height="24" viewBox="0 0 24 24" fill="none" xmlns="http://www.w3.org/2000/svg">
<rect y="6.10352e-05" width="24" height="24" rx="12" fill="currentColor"/>
<path d="M7.65 16.2C8.97548 16.2 10.05 15.1255 10.05 13.8C10.05 12.4745 8.97548 11.4 7.65 11.4C6.32452 11.4 5.25 12.4745 5.25 13.8C5.25 15.1255 6.32452 16.2 7.65 16.2Z" fill="white"/>
<path d="M13.3499 18.0001C14.1783 18.0001 14.8499 17.3285 14.8499 16.5001C14.8499 15.6716 14.1783 15.0001 13.3499 15.0001C12.5214 15.0001 11.8499 15.6716 11.8499 16.5001C11.8499 17.3285 12.5214 18.0001 13.3499 18.0001Z" fill="white"/>
<path d="M13.6499 13.2001C15.6382 13.2001 17.2499 11.5883 17.2499 9.60006C17.2499 7.61184 15.6382 6.00006 13.6499 6.00006C11.6617 6.00006 10.0499 7.61184 10.0499 9.60006C10.0499 11.5883 11.6617 13.2001 13.6499 13.2001Z" fill="white"/>
</svg>
