<svg width="24" height="24" viewBox="0 0 24 24" fill="none" xmlns="http://www.w3.org/2000/svg">
<rect y="6.10352e-05" width="24" height="24" rx="12" fill="currentColor"/>
<path d="M15.18 8.82006C14.3025 7.94256 13.155 7.50006 12 7.50006V12.0001L8.82 15.1801C10.575 16.9351 13.425 16.9351 15.1875 15.1801C16.9425 13.4251 16.9425 10.5751 15.18 8.82006ZM12 4.50006C7.86 4.50006 4.5 7.86006 4.5 12.0001C4.5 16.1401 7.86 19.5001 12 19.5001C16.14 19.5001 19.5 16.1401 19.5 12.0001C19.5 7.86006 16.14 4.50006 12 4.50006ZM12 18.0001C8.685 18.0001 6 15.3151 6 12.0001C6 8.68506 8.685 6.00006 12 6.00006C15.315 6.00006 18 8.68506 18 12.0001C18 15.3151 15.315 18.0001 12 18.0001Z" fill="white"/>
</svg>
