<svg xmlns="http://www.w3.org/2000/svg" width="125.504" height="17.742" viewBox="0 0 125.504 17.742"><defs><style>.a{fill:#0056d2;}</style></defs><path class="a" fill="#0056d2" d="M159.75,9.813a8.976,8.976,0,0,1,17.947,0,8.976,8.976,0,0,1-17.947,0Zm13.647,0a4.675,4.675,0,0,0-9.347,0,4.674,4.674,0,0,0,9.347,0Z" transform="translate(-142.394 -0.954)"/><path class="a" fill="#0056d2" d="M990.99,9.955c0-5.3,4.3-8.885,8.21-8.885,2.665,0,4.194.817,5.224,2.381l.41-2.064h4V18.27h-4l-.516-1.738A6.305,6.305,0,0,1,999.2,18.6,8.57,8.57,0,0,1,990.99,9.955Zm13.647-.036a4.672,4.672,0,0,0-9.343.036,4.677,4.677,0,0,0,9.343-.036Z" transform="translate(-883.326 -0.954)"/><path class="a" fill="#0056d2" d="M909.921,2.488V.533H905.55V17.415h4.371v-9.1c0-2.737,1.352-4.158,3.694-4.158.155,0,.3.011.448.025l.81-4.075A5.479,5.479,0,0,0,909.921,2.488Z" transform="translate(-807.168 -0.098)"/><path class="a" fill="#0056d2" d="M505.651,2.391V.436l-4.371.01.037,16.88,4.371-.01-.024-9.1c-.007-2.736,1.342-4.16,3.686-4.165a4.241,4.241,0,0,1,.448.025L510.6,0A5.488,5.488,0,0,0,505.651,2.391Z" transform="translate(-446.82)"/><path class="a" fill="#0056d2" d="M338.88,14.352V4.01h4.37v9.809c0,2.167,1.208,3.447,3.3,3.447,2.346,0,3.694-1.422,3.694-4.159V4.01h4.372V20.891h-4.369V18.935a5.5,5.5,0,0,1-5.011,2.381C341.332,21.318,338.88,18.475,338.88,14.352Z" transform="translate(-302.063 -3.574)"/><path class="a" fill="#0056d2" d="M730.62,9.832a8.617,8.617,0,1,1,17.233-.071,8.686,8.686,0,0,1-.109,1.386l-12.864-.024a4.538,4.538,0,0,0,4.685,3.492,5.249,5.249,0,0,0,4.161-1.84l2.981,2.39A9.012,9.012,0,0,1,730.62,9.832Zm12.833-1.753a3.976,3.976,0,0,0-4.116-3.028,4.469,4.469,0,0,0-4.306,3.013Z" transform="translate(-651.243 -0.954)"/><path class="a" fill="#0056d2" d="M587.34,13.708l3.885-2.034a3.839,3.839,0,0,0,3.746,2.212c1.676,0,2.318-.535,2.318-1.284,0-2.716-9.2-1.07-9.2-7.279,0-3.424,3-5.243,6.705-5.243a7.487,7.487,0,0,1,6.671,3.567l-3.85,2.037a3.189,3.189,0,0,0-3-1.784c-1.319,0-1.962.464-1.962,1.248,0,2.64,9.2.964,9.2,7.279,0,3.282-2.675,5.279-6.991,5.279C591.191,17.7,588.623,16.491,587.34,13.708Z" transform="translate(-523.53 -0.071)"/><path class="a" fill="#0056d2" d="M0,9.517A8.836,8.836,0,0,1,8.955.738a9.017,9.017,0,0,1,7.569,4.02L12.794,6.922A4.67,4.67,0,0,0,4.3,9.517,4.681,4.681,0,0,0,8.955,14.1,4.613,4.613,0,0,0,12.9,11.928l3.694,2.2a9.011,9.011,0,0,1-7.641,4.159A8.877,8.877,0,0,1,0,9.517Z" transform="translate(0 -0.658)"/></svg>