<svg xmlns="http://www.w3.org/2000/svg" width="60" height="33.72" viewBox="0 0 60 33.72"><defs><style>.a{fill:#02262b;}.b{fill:#fff;}</style></defs><path class="a" d="M38.355,5.53,39.511,0H5.567L0,26.589H28.381L26.818,33.72H54L60,5.53Z"/><path class="b" fill="#fff" d="M60.448,96.153a6.236,6.236,0,0,1-2.18-.379,5.064,5.064,0,0,1-1.79-1.116,5.265,5.265,0,0,1-1.206-1.814,6.47,6.47,0,0,1-.443-2.475,10.8,10.8,0,0,1,.532-3.482,8.2,8.2,0,0,1,1.481-2.694,6.563,6.563,0,0,1,2.277-1.737,6.822,6.822,0,0,1,2.905-.615,5.515,5.515,0,0,1,2.021.372A4.844,4.844,0,0,1,65.719,83.3a5.182,5.182,0,0,1,1.142,1.75,6.282,6.282,0,0,1,.423,2.385c0,.137,0,.3-.013.481s-.022.372-.039.564-.035.381-.051.564a4.581,4.581,0,0,1-.064.468H57.151c-.009.12-.015.235-.02.346s-.007.227-.007.346a4.78,4.78,0,0,0,.308,1.814,3.521,3.521,0,0,0,.8,1.225,2.983,2.983,0,0,0,1.109.686,3.8,3.8,0,0,0,1.244.212,4.452,4.452,0,0,0,2.206-.474,3.208,3.208,0,0,0,1.27-1.283h2.347a4.6,4.6,0,0,1-.718,1.488,4.836,4.836,0,0,1-1.263,1.2,6.34,6.34,0,0,1-1.77.8A8.017,8.017,0,0,1,60.448,96.153Zm4.5-8.427a1.733,1.733,0,0,0,.02-.238c0-.115.007-.229.007-.34a4.132,4.132,0,0,0-.2-1.289,3.083,3.083,0,0,0-.6-1.071,2.843,2.843,0,0,0-.988-.731,3.286,3.286,0,0,0-1.373-.269,3.909,3.909,0,0,0-1.488.282,4.143,4.143,0,0,0-1.257.8,5.057,5.057,0,0,0-.975,1.244,7.078,7.078,0,0,0-.654,1.609h7.5Z" transform="translate(-48.88 -72.959)"/><path class="b" fill="#fff" d="M186.278,53.05a4.88,4.88,0,0,1-1.95-.392,4.712,4.712,0,0,1-1.6-1.122,5.33,5.33,0,0,1-1.084-1.77,6.455,6.455,0,0,1-.4-2.321,11.07,11.07,0,0,1,.25-2.379,9.686,9.686,0,0,1,.712-2.1,8.386,8.386,0,0,1,1.109-1.75,7.262,7.262,0,0,1,1.437-1.334,6.342,6.342,0,0,1,1.706-.846,6.227,6.227,0,0,1,1.918-.3,4.839,4.839,0,0,1,1.417.205,4.54,4.54,0,0,1,1.219.571,3.863,3.863,0,0,1,.937.884,3.5,3.5,0,0,1,.571,1.135h.205l1.706-8.043h2.244l-4.1,19.317h-2.129l.4-1.885h-.205a5.464,5.464,0,0,1-4.36,2.128Zm.705-1.988a4.051,4.051,0,0,0,1.995-.507,5.174,5.174,0,0,0,1.6-1.385,6.721,6.721,0,0,0,1.065-2.065,8.263,8.263,0,0,0,.385-2.559,4.848,4.848,0,0,0-.244-1.591,3.432,3.432,0,0,0-.692-1.2A3.048,3.048,0,0,0,190,40.993a3.7,3.7,0,0,0-1.45-.269,4.215,4.215,0,0,0-1.975.474,4.851,4.851,0,0,0-1.578,1.321,6.5,6.5,0,0,0-1.052,2.02,8.223,8.223,0,0,0-.385,2.572,4.911,4.911,0,0,0,.251,1.6,3.739,3.739,0,0,0,.7,1.25,3.154,3.154,0,0,0,1.078.808A3.3,3.3,0,0,0,186.983,51.062Z" transform="translate(-161.58 -29.856)"/><g transform="translate(31.514 9.165)"><path class="b" fill="#fff" d="M314.108,84.45H309.1l-5.461,6.761h-.269l-2.888-6.761H295.42l4.341,9.82-9.371,11.1h4.939l6.014-7.131h.406L305,105.371h4.969l-4.805-10.609Z" transform="translate(-290.39 -84.45)"/></g></svg>