<svg xmlns="http://www.w3.org/2000/svg" width="113" height="32.08" viewBox="0 0 113 32.08"><defs><style>.a{fill:#645a53;}.a,.b{fill-rule:evenodd;}.b{fill:#ea5252;}</style></defs><g transform="translate(0 -0.002)"><g transform="translate(0 0.002)"><g transform="translate(0 0)"><path class="a" d="M297.225,63.94h3.242l5.61-14.217h-3.21L300.549,56.8l-2.443-7.081h-3.582l4.266,10.269ZM281.132,53.1v7.288H277.86V49.724h2.3l.683.931a4.494,4.494,0,0,1,2.94-1.18,3.547,3.547,0,0,1,3.271,1.512,4.9,4.9,0,0,1,3.4-1.512c2.526,0,4,1.3,4,4.845v6.066h-3.271V54.693c0-1.636-.663-2.112-1.719-2.112a3,3,0,0,0-1.718.538,10.7,10.7,0,0,1,.062,1.2v6.066h-3.271V54.693c0-1.636-.663-2.112-1.739-2.112a2.794,2.794,0,0,0-1.657.518Zm-11.409.911h4.2c-.228-1.387-.973-2.05-2.091-2.05a2.119,2.119,0,0,0-2.112,2.05Zm2.34,6.584c-3.147,0-5.673-1.553-5.673-5.652,0-3.83,2.444-5.486,5.259-5.486,3.4,0,4.907,2.381,4.907,6.128H269.7c.228,1.842,1.367,2.381,2.879,2.381a6.1,6.1,0,0,0,3.49-.956l-.444,2.595a5.38,5.38,0,0,1-3.564.991ZM259.882,57.84a2.862,2.862,0,0,0,1.884-.559V52.643a3.2,3.2,0,0,0-1.78-.456c-1.594,0-2.505,1.076-2.505,2.877,0,1.76.932,2.775,2.4,2.775Zm2.526,1.76a5,5,0,0,1-3.209,1.035c-2.919,0-5.031-1.8-5.031-5.507,0-3.685,2.423-5.673,5.528-5.673a5.732,5.732,0,0,1,2.07.352V45.281h3.272V60.386h-2.071Zm-22.1-5.528v-7.9h3.4v7.84c0,2.816,1.263,3.4,3,3.4,1.884,0,2.857-.828,2.857-3.4v-7.84h3.416v7.9c0,4.659-2.029,6.6-6.439,6.6-4.1,0-6.232-1.677-6.232-6.6Z" transform="translate(-193.077 -36.381)"/><path class="b" d="M38.577,18.284a1.044,1.044,0,0,0-.461-.217,22.174,22.174,0,0,1-3.29,2.741,3.046,3.046,0,0,1-1.539.5c-.954,0-1.369-.91-1.494-2.357-.166-1.943-.278-4.27-.278-7.867,0-3.689-.837-6.2-3.067-6.394-.094-.008-.19-.014-.289-.014-1.369,0-2.033.7-2.9,2.481-.747,1.529-1.908,3.762-4.065,7.979a56.431,56.431,0,0,1-5.726,9.1A6.158,6.158,0,0,1,14.2,25.513a1.309,1.309,0,0,1-.732.244c-.7,0-1.218-.594-1.39-1.978a9.166,9.166,0,0,1-.062-1.123c0-2.852,1.079-7.483,2.946-14.3,1.369-4.961.788-8.35-2.2-8.35h-.036A2.834,2.834,0,0,0,10.953.68,6.527,6.527,0,0,0,9.392,3.22C8.832,4.59,5.426,11.423,0,14.942a2.534,2.534,0,0,0,2.229,2.821c1.4.132,2.39-.457,3.667-1.315-.1.427-.184.826-.265,1.191-.1.431-.176.8-.241,1.1-.1.447-.159.734-.177.814a22.839,22.839,0,0,0-.386,2.321c-.764,6.833,2.4,10.2,6.112,10.2a7.448,7.448,0,0,0,1.844-.229c4.086-1.036,8.021-5.724,12.677-16.514a29.966,29.966,0,0,0-.027,3.287c.307,6.184,2.753,8.04,6.209,8.04a8.092,8.092,0,0,0,6.306-3.059,6.043,6.043,0,0,0,1.286-3.556,2.246,2.246,0,0,0-.659-1.767" transform="translate(0 -0.002)"/></g></g></g></svg>