<svg width="16" height="15" viewBox="0 0 16 15" fill="none" xmlns="http://www.w3.org/2000/svg">
<path d="M9.01957 12.8333H8.51957V13.3333V14.5H7.91409V10.5H8.51957V11.6667V12.1667H9.01957H14.9415V12.8333H9.01957ZM4.20314 7.16667H4.70314V6.66667V5.5H5.30861V9.5H4.70314V8.33333V7.83333H4.20314H1.49219V7.16667H4.20314ZM12.2305 2.83333H11.7305V3.33333V4.5H11.125V0.5H11.7305V1.66667V2.16667H12.2305H14.9415V2.83333H12.2305ZM5.30861 12.8333H1.49219V12.1667H5.30861V12.8333ZM8.51957 2.83333H1.49219V2.16667H8.51957V2.83333ZM7.91409 7.16667H14.9415V7.83333H7.91409V7.16667Z" fill="black" stroke="#0097A7"/>
</svg>
