<svg width="20" height="20" viewBox="0 0 20 20" fill="currentColor" xmlns="http://www.w3.org/2000/svg">
<path d="M17.1391 10.9364C17.1751 10.6364 17.1991 10.3244 17.1991 10.0004C17.1991 9.67639 17.1751 9.36439 17.1271 9.06439L19.1551 7.48039C19.3351 7.33639 19.3831 7.07239 19.2751 6.86839L17.3551 3.54439C17.2351 3.32839 16.9831 3.25639 16.7671 3.32839L14.3791 4.28839C13.8751 3.90439 13.3471 3.59239 12.7591 3.35239L12.3991 0.808391C12.3631 0.568391 12.1591 0.400391 11.9191 0.400391H8.07913C7.83913 0.400391 7.64713 0.568391 7.61113 0.808391L7.25113 3.35239C6.66313 3.59239 6.12313 3.91639 5.63113 4.28839L3.24313 3.32839C3.02713 3.24439 2.77513 3.32839 2.65513 3.54439L0.73513 6.86839C0.61513 7.08439 0.66313 7.33639 0.85513 7.48039L2.88313 9.06439C2.83513 9.36439 2.79913 9.68839 2.79913 10.0004C2.79913 10.3124 2.82313 10.6364 2.87113 10.9364L0.84313 12.5204C0.66313 12.6644 0.61513 12.9284 0.72313 13.1324L2.64313 16.4564C2.76313 16.6724 3.01513 16.7444 3.23113 16.6724L5.61913 15.7124C6.12313 16.0964 6.65113 16.4084 7.23913 16.6484L7.59913 19.1924C7.64713 19.4324 7.83913 19.6004 8.07913 19.6004H11.9191C12.1591 19.6004 12.3631 19.4324 12.3871 19.1924L12.7471 16.6484C13.3351 16.4084 13.8751 16.0844 14.3671 15.7124L16.7551 16.6724C16.9711 16.7564 17.2231 16.6724 17.3431 16.4564L19.2631 13.1324C19.3831 12.9164 19.3351 12.6644 19.1431 12.5204L17.1391 10.9364ZM9.99913 13.6004C8.01913 13.6004 6.39913 11.9804 6.39913 10.0004C6.39913 8.02039 8.01913 6.40039 9.99913 6.40039C11.9791 6.40039 13.5991 8.02039 13.5991 10.0004C13.5991 11.9804 11.9791 13.6004 9.99913 13.6004Z" fill="currentColor"/>
</svg>
