<svg xmlns="http://www.w3.org/2000/svg" width="24" height="24"><path d="M12 0C5.373 0 0 5.373 0 12s5.373 12 12 12 12-5.373 12-12S18.627 0 12 0zM9.083 16.083C6.825 16.083 5 14.258 5 12s1.825-4.083 4.083-4.083a3.91 3.91 0 012.735 1.067l-1.107 1.068c-.304-.292-.834-.63-1.628-.63-1.394 0-2.531 1.155-2.531 2.579 0 1.424 1.138 2.579 2.531 2.579 1.616 0 2.224-1.162 2.316-1.762H9.083v-1.4h3.855c.036.204.064.408.064.677.001 2.332-1.563 3.988-3.919 3.988zm9.917-3.5h-1.75v1.75h-1.167v-1.75h-1.75v-1.166h1.75v-1.75h1.167v1.75H19v1.166z"/></svg>